<!-- SVG sprite for ZWAP! UI icons -->
<svg xmlns="http://www.w3.org/2000/svg" style="display:none">
  <!-- MOVE: Neon blue running shoe -->
  <symbol id="icon-shoe" viewBox="0 0 32 32">
    <path d="M4 24c0-4 4-8 8-8h12c2 0 4 2 4 4v4H4z" fill="#00BFFF"/>
    <path d="M8 20l4-4 8 4" stroke="#3fdfff" stroke-width="2.2" fill="none"/>
    <ellipse cx="20" cy="20" rx="2.2" ry="1.1" fill="#fff" opacity=".7"/>
  </symbol>
  <!-- PLAY: Neon cyan cube -->
  <symbol id="icon-cube" viewBox="0 0 32 32">
    <rect x="7" y="7" width="18" height="18" rx="4" fill="#00fff0"/>
    <path d="M7 16h18M16 7v18" stroke="#fff" stroke-width="2.2"/>
    <rect x="10.5" y="10.5" width="11" height="11" rx="2.5" stroke="#3fdfff" stroke-width="1.2" fill="none"/>
  </symbol>
  <!-- SHOP: Neon magenta shopping bag -->
  <symbol id="icon-bag" viewBox="0 0 32 32">
    <rect x="8" y="13" width="16" height="11" rx="4" fill="#ff00ff"/>
    <path d="M12 13V9a4 4 0 0 1 8 0v4" stroke="#fff" stroke-width="2.2" fill="none"/>
    <rect x="8" y="13" width="16" height="11" rx="4" stroke="#fff" stroke-width="1.2" fill="none"/>
  </symbol>
  <!-- SWAP: Neon blue circular arrows -->
  <symbol id="icon-swap" viewBox="0 0 32 32">
    <circle cx="16" cy="16" r="12" fill="#00BFFF"/>
    <path d="M10 16h12M16 10l6 6-6 6" stroke="#fff" stroke-width="2.2" fill="none"/>
    <circle cx="16" cy="16" r="12" stroke="#3fdfff" stroke-width="1.2" fill="none"/>
  </symbol>
</svg>
