<!-- SVG sprite for ZWAP! UI icons -->
<svg xmlns="http://www.w3.org/2000/svg" style="display:none">
  <symbol id="icon-shoe" viewBox="0 0 32 32">
    <path d="M4 24c0-4 4-8 8-8h12c2 0 4 2 4 4v4H4z" fill="#3fdfff"/>
    <path d="M8 20l4-4 8 4" stroke="#fff" stroke-width="2" fill="none"/>
  </symbol>
  <symbol id="icon-cube" viewBox="0 0 32 32">
    <rect x="6" y="6" width="20" height="20" rx="4" fill="#00fff0"/>
    <path d="M6 16h20M16 6v20" stroke="#fff" stroke-width="2"/>
  </symbol>
  <symbol id="icon-bag" viewBox="0 0 32 32">
    <rect x="8" y="12" width="16" height="12" rx="4" fill="#ff00ff"/>
    <path d="M12 12V8a4 4 0 0 1 8 0v4" stroke="#fff" stroke-width="2" fill="none"/>
  </symbol>
  <symbol id="icon-swap" viewBox="0 0 32 32">
    <circle cx="16" cy="16" r="12" fill="#ffd700"/>
    <path d="M10 16h12M16 10l6 6-6 6" stroke="#fff" stroke-width="2" fill="none"/>
  </symbol>
</svg>
